<svg width="238" height="62" viewBox="0 0 238 62" fill="none" xmlns="http://www.w3.org/2000/svg">
<path d="M32.04 8.16C34.3867 8.16 36.2533 8.8 37.64 10.08C39.0267 11.3333 39.72 13.12 39.72 15.44C39.72 16.2933 39.6267 17.1733 39.44 18.08L37.08 30H30.84L33.12 18.52C33.2267 17.9867 33.28 17.44 33.28 16.88C33.28 15.7867 32.9867 14.96 32.4 14.4C31.84 13.84 31 13.56 29.88 13.56C26.8667 13.56 24.9867 15.36 24.24 18.96L22.04 30H15.8L18.08 18.52C18.1867 17.9867 18.24 17.4533 18.24 16.92C18.24 15.8267 17.9467 15 17.36 14.44C16.8 13.8533 15.96 13.56 14.84 13.56C11.8267 13.56 9.93333 15.3867 9.16 19.04L7 30H0.76L5.04 8.48H10.96L10.48 10.72C12.3467 9.01333 14.6 8.16 17.24 8.16C18.7333 8.16 20.0533 8.46667 21.2 9.08C22.3733 9.66667 23.2533 10.5333 23.84 11.68C24.88 10.5333 26.0933 9.66667 27.48 9.08C28.8667 8.46667 30.3867 8.16 32.04 8.16ZM63.0731 8.48L58.7931 30H52.8731L53.3131 27.68C52.3798 28.56 51.3131 29.2267 50.1131 29.68C48.9131 30.1067 47.6465 30.32 46.3131 30.32C43.9665 30.32 42.0865 29.68 40.6731 28.4C39.2865 27.12 38.5931 25.32 38.5931 23C38.5931 22.12 38.6865 21.2533 38.8731 20.4L41.2331 8.48H47.4731L45.1931 20C45.0865 20.5067 45.0331 21.0267 45.0331 21.56C45.0331 23.8 46.2331 24.92 48.6331 24.92C50.2065 24.92 51.4998 24.4667 52.5131 23.56C53.5531 22.6267 54.2598 21.24 54.6331 19.4L56.8331 8.48H63.0731ZM87.1741 0.319998L81.2541 30H75.3341L75.7741 27.84C73.9607 29.4933 71.7607 30.32 69.1741 30.32C67.4941 30.32 65.9474 29.9333 64.5341 29.16C63.1207 28.3867 61.9874 27.28 61.1341 25.84C60.3074 24.3733 59.8941 22.6533 59.8941 20.68C59.8941 18.3067 60.4141 16.1733 61.4541 14.28C62.5207 12.36 63.9607 10.8667 65.7741 9.8C67.5874 8.70667 69.5874 8.16 71.7741 8.16C73.3474 8.16 74.7207 8.42667 75.8941 8.96C77.0941 9.49333 78.0407 10.28 78.7341 11.32L80.9341 0.319998H87.1741ZM71.0941 25.16C72.3207 25.16 73.4141 24.8667 74.3741 24.28C75.3341 23.6667 76.0807 22.8267 76.6141 21.76C77.1474 20.6933 77.4141 19.4667 77.4141 18.08C77.4141 16.6133 76.9741 15.4533 76.0941 14.6C75.2407 13.7467 74.0407 13.32 72.4941 13.32C71.2674 13.32 70.1741 13.6267 69.2141 14.24C68.2541 14.8267 67.5074 15.6533 66.9741 16.72C66.4407 17.7867 66.1741 19.0133 66.1741 20.4C66.1741 21.8667 66.6007 23.0267 67.4541 23.88C68.3341 24.7333 69.5474 25.16 71.0941 25.16ZM110.869 0.319998L104.949 30H99.0294L99.4694 27.84C97.656 29.4933 95.456 30.32 92.8694 30.32C91.1894 30.32 89.6427 29.9333 88.2294 29.16C86.816 28.3867 85.6827 27.28 84.8294 25.84C84.0027 24.3733 83.5894 22.6533 83.5894 20.68C83.5894 18.3067 84.1094 16.1733 85.1494 14.28C86.216 12.36 87.656 10.8667 89.4694 9.8C91.2827 8.70667 93.2827 8.16 95.4694 8.16C97.0427 8.16 98.416 8.42667 99.5894 8.96C100.789 9.49333 101.736 10.28 102.429 11.32L104.629 0.319998H110.869ZM94.7894 25.16C96.016 25.16 97.1094 24.8667 98.0694 24.28C99.0294 23.6667 99.776 22.8267 100.309 21.76C100.843 20.6933 101.109 19.4667 101.109 18.08C101.109 16.6133 100.669 15.4533 99.7894 14.6C98.936 13.7467 97.736 13.32 96.1894 13.32C94.9627 13.32 93.8694 13.6267 92.9094 14.24C91.9494 14.8267 91.2027 15.6533 90.6694 16.72C90.136 17.7867 89.8694 19.0133 89.8694 20.4C89.8694 21.8667 90.296 23.0267 91.1494 23.88C92.0294 24.7333 93.2427 25.16 94.7894 25.16ZM132.405 8.48L118.085 31.44C116.538 33.9467 115.031 35.68 113.565 36.64C112.125 37.6 110.351 38.08 108.245 38.08C107.125 38.08 106.031 37.9067 104.965 37.56C103.871 37.2133 103.018 36.76 102.405 36.2L105.285 31.72C106.245 32.6 107.391 33.04 108.725 33.04C109.525 33.04 110.218 32.84 110.805 32.44C111.391 32.04 111.991 31.36 112.605 30.4L112.805 30.04L107.845 8.48H114.085L117.285 23.12L126.245 8.48H132.405ZM150.359 8.16C152.039 8.16 153.586 8.54667 154.999 9.32C156.439 10.0933 157.572 11.2133 158.399 12.68C159.252 14.12 159.679 15.8267 159.679 17.8C159.679 20.1733 159.146 22.32 158.079 24.24C157.039 26.1333 155.612 27.6267 153.799 28.72C151.986 29.7867 149.972 30.32 147.759 30.32C144.479 30.32 142.159 29.2533 140.799 27.12L138.679 37.76H132.439L138.279 8.48H144.199L143.759 10.6C145.546 8.97333 147.746 8.16 150.359 8.16ZM147.039 25.16C148.266 25.16 149.359 24.8667 150.319 24.28C151.279 23.6667 152.026 22.8267 152.559 21.76C153.092 20.6933 153.359 19.4667 153.359 18.08C153.359 16.6133 152.919 15.4533 152.039 14.6C151.186 13.7467 149.986 13.32 148.439 13.32C147.239 13.32 146.159 13.6267 145.199 14.24C144.239 14.8267 143.492 15.6533 142.959 16.72C142.426 17.7867 142.159 19.0133 142.159 20.4C142.159 21.8667 142.586 23.0267 143.439 23.88C144.292 24.7333 145.492 25.16 147.039 25.16ZM183.736 8.48L179.456 30H173.536L173.936 27.88C172.15 29.5067 169.95 30.32 167.336 30.32C165.656 30.32 164.11 29.9333 162.696 29.16C161.283 28.3867 160.15 27.28 159.296 25.84C158.47 24.3733 158.056 22.6533 158.056 20.68C158.056 18.3067 158.576 16.1733 159.616 14.28C160.683 12.36 162.123 10.8667 163.936 9.8C165.75 8.70667 167.75 8.16 169.936 8.16C173.243 8.16 175.576 9.24 176.936 11.4L177.496 8.48H183.736ZM169.256 25.16C170.483 25.16 171.576 24.8667 172.536 24.28C173.496 23.6667 174.243 22.8267 174.776 21.76C175.31 20.6933 175.576 19.4667 175.576 18.08C175.576 16.6133 175.136 15.4533 174.256 14.6C173.403 13.7467 172.203 13.32 170.656 13.32C169.43 13.32 168.336 13.6267 167.376 14.24C166.416 14.8267 165.67 15.6533 165.136 16.72C164.603 17.7867 164.336 19.0133 164.336 20.4C164.336 21.8667 164.763 23.0267 165.616 23.88C166.496 24.7333 167.71 25.16 169.256 25.16ZM220.353 8.48L208.473 30H202.313L199.833 16.6L192.433 30H186.353L182.553 8.48H188.233L190.593 22.96L198.673 8.48H204.033L206.473 22.96L214.473 8.48H220.353ZM222.417 30.32C220.551 30.32 218.777 30.12 217.097 29.72C215.444 29.2933 214.151 28.7467 213.217 28.08L215.617 23.56C216.551 24.1733 217.684 24.6667 219.017 25.04C220.377 25.4133 221.737 25.6 223.097 25.6C224.511 25.6 225.564 25.4267 226.257 25.08C226.951 24.7067 227.297 24.1867 227.297 23.52C227.297 22.9867 226.991 22.6 226.377 22.36C225.764 22.12 224.777 21.8667 223.417 21.6C221.871 21.3067 220.591 20.9867 219.577 20.64C218.591 20.2933 217.724 19.7333 216.977 18.96C216.257 18.16 215.897 17.08 215.897 15.72C215.897 13.3467 216.884 11.4933 218.857 10.16C220.857 8.82667 223.471 8.16 226.697 8.16C228.191 8.16 229.644 8.32 231.057 8.64C232.471 8.96 233.671 9.4 234.657 9.96L232.417 14.52C230.657 13.4267 228.537 12.88 226.057 12.88C224.697 12.88 223.657 13.08 222.937 13.48C222.244 13.88 221.897 14.3867 221.897 15C221.897 15.56 222.204 15.9733 222.817 16.24C223.431 16.48 224.457 16.7467 225.897 17.04C227.417 17.3333 228.657 17.6533 229.617 18C230.604 18.32 231.457 18.8667 232.177 19.64C232.897 20.4133 233.257 21.4667 233.257 22.8C233.257 25.2 232.244 27.0533 230.217 28.36C228.217 29.6667 225.617 30.32 222.417 30.32Z" fill="#151515"/>
<path d="M33.191 53.3H27.341L26.225 56H23.237L28.853 43.4H31.733L37.367 56H34.307L33.191 53.3ZM32.273 51.086L30.275 46.262L28.277 51.086H32.273ZM39.5743 43.4H45.2983C46.6663 43.4 47.8723 43.664 48.9163 44.192C49.9723 44.708 50.7883 45.44 51.3643 46.388C51.9523 47.336 52.2463 48.44 52.2463 49.7C52.2463 50.96 51.9523 52.064 51.3643 53.012C50.7883 53.96 49.9723 54.698 48.9163 55.226C47.8723 55.742 46.6663 56 45.2983 56H39.5743V43.4ZM45.1543 53.606C46.4143 53.606 47.4163 53.258 48.1603 52.562C48.9163 51.854 49.2943 50.9 49.2943 49.7C49.2943 48.5 48.9163 47.552 48.1603 46.856C47.4163 46.148 46.4143 45.794 45.1543 45.794H42.4903V53.606H45.1543ZM67.0375 43.4L61.5835 56H58.7035L53.2675 43.4H56.4175L60.2515 52.4L64.1395 43.4H67.0375ZM78.7455 53.66V56H68.9895V43.4H78.5115V45.74H71.8875V48.476H77.7375V50.744H71.8875V53.66H78.7455ZM93.5217 43.4V56H91.1277L84.8457 48.35V56H81.9657V43.4H84.3777L90.6417 51.05V43.4H93.5217ZM100.013 45.776H95.9808V43.4H106.961V45.776H102.929V56H100.013V45.776ZM114.817 56.216C113.017 56.216 111.613 55.718 110.605 54.722C109.609 53.726 109.111 52.304 109.111 50.456V43.4H112.027V50.348C112.027 52.604 112.963 53.732 114.835 53.732C115.747 53.732 116.443 53.462 116.923 52.922C117.403 52.37 117.643 51.512 117.643 50.348V43.4H120.523V50.456C120.523 52.304 120.019 53.726 119.011 54.722C118.015 55.718 116.617 56.216 114.817 56.216ZM132.332 56L129.902 52.49H129.758H127.22V56H124.304V43.4H129.758C130.874 43.4 131.84 43.586 132.656 43.958C133.484 44.33 134.12 44.858 134.564 45.542C135.008 46.226 135.23 47.036 135.23 47.972C135.23 48.908 135.002 49.718 134.546 50.402C134.102 51.074 133.466 51.59 132.638 51.95L135.464 56H132.332ZM132.278 47.972C132.278 47.264 132.05 46.724 131.594 46.352C131.138 45.968 130.472 45.776 129.596 45.776H127.22V50.168H129.596C130.472 50.168 131.138 49.976 131.594 49.592C132.05 49.208 132.278 48.668 132.278 47.972ZM148.197 53.66V56H138.441V43.4H147.963V45.74H141.339V48.476H147.189V50.744H141.339V53.66H148.197ZM165.929 49.502H168.593V54.614C167.909 55.13 167.117 55.526 166.217 55.802C165.317 56.078 164.411 56.216 163.499 56.216C162.191 56.216 161.015 55.94 159.971 55.388C158.927 54.824 158.105 54.05 157.505 53.066C156.917 52.07 156.623 50.948 156.623 49.7C156.623 48.452 156.917 47.336 157.505 46.352C158.105 45.356 158.933 44.582 159.989 44.03C161.045 43.466 162.233 43.184 163.553 43.184C164.657 43.184 165.659 43.37 166.559 43.742C167.459 44.114 168.215 44.654 168.827 45.362L166.955 47.09C166.055 46.142 164.969 45.668 163.697 45.668C162.893 45.668 162.179 45.836 161.555 46.172C160.931 46.508 160.445 46.982 160.097 47.594C159.749 48.206 159.575 48.908 159.575 49.7C159.575 50.48 159.749 51.176 160.097 51.788C160.445 52.4 160.925 52.88 161.537 53.228C162.161 53.564 162.869 53.732 163.661 53.732C164.501 53.732 165.257 53.552 165.929 53.192V49.502ZM181.957 53.66V56H172.201V43.4H181.723V45.74H175.099V48.476H180.949V50.744H175.099V53.66H181.957ZM193.475 53.3H187.625L186.509 56H183.521L189.137 43.4H192.017L197.651 56H194.591L193.475 53.3ZM192.557 51.086L190.559 46.262L188.561 51.086H192.557ZM207.887 56L205.457 52.49H205.313H202.775V56H199.859V43.4H205.313C206.429 43.4 207.395 43.586 208.211 43.958C209.039 44.33 209.675 44.858 210.119 45.542C210.563 46.226 210.785 47.036 210.785 47.972C210.785 48.908 210.557 49.718 210.101 50.402C209.657 51.074 209.021 51.59 208.193 51.95L211.019 56H207.887ZM207.833 47.972C207.833 47.264 207.605 46.724 207.149 46.352C206.693 45.968 206.027 45.776 205.151 45.776H202.775V50.168H205.151C206.027 50.168 206.693 49.976 207.149 49.592C207.605 49.208 207.833 48.668 207.833 47.972Z" fill="#9395AA"/>
</svg>
