<svg width="33" height="33" viewBox="0 0 33 33" fill="none" xmlns="http://www.w3.org/2000/svg">
<path fill-rule="evenodd" clip-rule="evenodd" d="M19.8 6.94737V3.47368H13.2V6.94737H19.8ZM3.3 10.4211V29.5263H29.7V10.4211H3.3ZM29.7 6.94737C31.5315 6.94737 33 8.49316 33 10.4211V29.5263C33 31.4542 31.5315 33 29.7 33H3.3C1.4685 33 0 31.4542 0 29.5263L0.0165 10.4211C0.0165 8.49316 1.4685 6.94737 3.3 6.94737H9.9V3.47368C9.9 1.54579 11.3685 0 13.2 0H19.8C21.6315 0 23.1 1.54579 23.1 3.47368V6.94737H29.7Z" fill="#151515"/>
</svg>
