<svg width="176" height="45" viewBox="0 0 176 45" fill="none" xmlns="http://www.w3.org/2000/svg">
<path d="M24.5994 5.91355C26.3278 5.91355 27.7027 6.38495 28.7241 7.32774C29.7454 8.25089 30.2561 9.56688 30.2561 11.2757C30.2561 11.9042 30.1874 12.5524 30.0499 13.2202L28.3116 22H23.7155L25.3948 13.5443C25.4734 13.1515 25.5127 12.7488 25.5127 12.3363C25.5127 11.531 25.2966 10.9221 24.8645 10.5097C24.452 10.0972 23.8333 9.89097 23.0084 9.89097C20.7889 9.89097 19.4042 11.2168 18.8542 13.8684L17.2338 22H12.6376L14.317 13.5443C14.3956 13.1515 14.4348 12.7586 14.4348 12.3658C14.4348 11.5605 14.2188 10.9516 13.7867 10.5391C13.3742 10.107 12.7555 9.89097 11.9305 9.89097C9.71104 9.89097 8.31649 11.2364 7.74688 13.9273L6.15591 22H1.55978L4.71226 6.14925H9.07269L8.71914 7.79914C10.0941 6.54208 11.7538 5.91355 13.6983 5.91355C14.7982 5.91355 15.7705 6.13943 16.6151 6.59118C17.4793 7.0233 18.1275 7.66165 18.5596 8.50624C19.3256 7.66165 20.2193 7.0233 21.2406 6.59118C22.262 6.13943 23.3816 5.91355 24.5994 5.91355ZM47.4571 6.14925L44.3046 22H39.9442L40.2683 20.2912C39.5808 20.9394 38.7952 21.4304 37.9113 21.7643C37.0274 22.0786 36.0944 22.2357 35.1124 22.2357C33.3839 22.2357 31.9992 21.7643 30.9582 20.8215C29.9368 19.8787 29.4261 18.5529 29.4261 16.8441C29.4261 16.1959 29.4949 15.5576 29.6324 14.929L31.3706 6.14925H35.9668L34.2874 14.6344C34.2088 15.0076 34.1696 15.3906 34.1696 15.7834C34.1696 17.4333 35.0534 18.2583 36.8212 18.2583C37.98 18.2583 38.9326 17.9244 39.679 17.2566C40.445 16.5691 40.9655 15.5477 41.2405 14.1925L42.861 6.14925H47.4571ZM65.2089 0.138923L60.8484 22H56.488L56.8121 20.409C55.4765 21.6268 53.856 22.2357 51.9508 22.2357C50.7134 22.2357 49.5742 21.9509 48.5332 21.3813C47.4922 20.8117 46.6574 19.9966 46.0289 18.9359C45.42 17.8556 45.1155 16.5887 45.1155 15.1353C45.1155 13.3872 45.4985 11.8158 46.2646 10.4213C47.0502 9.0071 48.1109 7.90717 49.4465 7.12151C50.7821 6.3162 52.2552 5.91355 53.8658 5.91355C55.0247 5.91355 56.0362 6.10996 56.9005 6.50279C57.7843 6.89563 58.4816 7.47505 58.9923 8.24107L60.6127 0.138923H65.2089ZM53.365 18.4351C54.2685 18.4351 55.0738 18.219 55.7809 17.7869C56.488 17.3351 57.038 16.7164 57.4308 15.9308C57.8236 15.1451 58.02 14.2416 58.02 13.2202C58.02 12.1399 57.696 11.2855 57.0478 10.657C56.4192 10.0285 55.5354 9.71419 54.3962 9.71419C53.4927 9.71419 52.6874 9.94007 51.9803 10.3918C51.2732 10.8239 50.7232 11.4328 50.3304 12.2185C49.9375 13.0042 49.7411 13.9077 49.7411 14.929C49.7411 16.0093 50.0554 16.8637 50.6839 17.4923C51.3321 18.1208 52.2258 18.4351 53.365 18.4351ZM82.6619 0.138923L78.3014 22H73.941L74.2651 20.409C72.9295 21.6268 71.309 22.2357 69.4038 22.2357C68.1664 22.2357 67.0272 21.9509 65.9862 21.3813C64.9452 20.8117 64.1104 19.9966 63.4819 18.9359C62.873 17.8556 62.5685 16.5887 62.5685 15.1353C62.5685 13.3872 62.9515 11.8158 63.7176 10.4213C64.5032 9.0071 65.5639 7.90717 66.8995 7.12151C68.2351 6.3162 69.7082 5.91355 71.3188 5.91355C72.4777 5.91355 73.4892 6.10996 74.3535 6.50279C75.2373 6.89563 75.9346 7.47505 76.4453 8.24107L78.0657 0.138923H82.6619ZM70.818 18.4351C71.7215 18.4351 72.5268 18.219 73.2339 17.7869C73.941 17.3351 74.491 16.7164 74.8838 15.9308C75.2766 15.1451 75.473 14.2416 75.473 13.2202C75.473 12.1399 75.149 11.2855 74.5008 10.657C73.8722 10.0285 72.9884 9.71419 71.8492 9.71419C70.9457 9.71419 70.1403 9.94007 69.4333 10.3918C68.7262 10.8239 68.1762 11.4328 67.7834 12.2185C67.3905 13.0042 67.1941 13.9077 67.1941 14.929C67.1941 16.0093 67.5084 16.8637 68.1369 17.4923C68.7851 18.1208 69.6788 18.4351 70.818 18.4351ZM98.5239 6.14925L87.9764 23.0606C86.8372 24.907 85.7274 26.1837 84.6471 26.8908C83.5865 27.5978 82.2803 27.9514 80.7286 27.9514C79.9037 27.9514 79.0984 27.8237 78.3127 27.5684C77.5074 27.313 76.8789 26.9791 76.4271 26.5667L78.5484 23.2669C79.2555 23.9151 80.1001 24.2391 81.0822 24.2391C81.6714 24.2391 82.1821 24.0918 82.6142 23.7972C83.0463 23.5026 83.4883 23.0017 83.94 22.2946L84.0873 22.0295L80.434 6.14925H85.0301L87.3871 16.9325L93.9867 6.14925H98.5239ZM111.748 5.91355C112.986 5.91355 114.125 6.19835 115.166 6.76796C116.227 7.33756 117.061 8.16251 117.67 9.24279C118.299 10.3034 118.613 11.5605 118.613 13.014C118.613 14.7621 118.22 16.3432 117.435 17.7574C116.669 19.152 115.618 20.2519 114.282 21.0572C112.946 21.8429 111.464 22.2357 109.833 22.2357C107.417 22.2357 105.709 21.45 104.707 19.8787L103.145 27.7157H98.5492L102.851 6.14925H107.211L106.887 7.71075C108.203 6.51262 109.823 5.91355 111.748 5.91355ZM109.303 18.4351C110.206 18.4351 111.012 18.219 111.719 17.7869C112.426 17.3351 112.976 16.7164 113.369 15.9308C113.762 15.1451 113.958 14.2416 113.958 13.2202C113.958 12.1399 113.634 11.2855 112.986 10.657C112.357 10.0285 111.473 9.71419 110.334 9.71419C109.45 9.71419 108.655 9.94007 107.948 10.3918C107.241 10.8239 106.691 11.4328 106.298 12.2185C105.905 13.0042 105.709 13.9077 105.709 14.929C105.709 16.0093 106.023 16.8637 106.651 17.4923C107.28 18.1208 108.164 18.4351 109.303 18.4351ZM136.333 6.14925L133.18 22H128.82L129.114 20.4385C127.798 21.6366 126.178 22.2357 124.253 22.2357C123.016 22.2357 121.876 21.9509 120.835 21.3813C119.794 20.8117 118.96 19.9966 118.331 18.9359C117.722 17.8556 117.418 16.5887 117.418 15.1353C117.418 13.3872 117.801 11.8158 118.567 10.4213C119.352 9.0071 120.413 7.90717 121.749 7.12151C123.084 6.3162 124.557 5.91355 126.168 5.91355C128.604 5.91355 130.322 6.70903 131.324 8.3L131.736 6.14925H136.333ZM125.667 18.4351C126.571 18.4351 127.376 18.219 128.083 17.7869C128.79 17.3351 129.34 16.7164 129.733 15.9308C130.126 15.1451 130.322 14.2416 130.322 13.2202C130.322 12.1399 129.998 11.2855 129.35 10.657C128.722 10.0285 127.838 9.71419 126.698 9.71419C125.795 9.71419 124.99 9.94007 124.283 10.3918C123.575 10.8239 123.025 11.4328 122.633 12.2185C122.24 13.0042 122.043 13.9077 122.043 14.929C122.043 16.0093 122.358 16.8637 122.986 17.4923C123.634 18.1208 124.528 18.4351 125.667 18.4351ZM163.303 6.14925L154.553 22H150.016L148.189 12.1301L142.739 22H138.26L135.461 6.14925H139.645L141.383 16.8146L147.335 6.14925H151.283L153.08 16.8146L158.972 6.14925H163.303ZM164.823 22.2357C163.449 22.2357 162.142 22.0884 160.905 21.7938C159.687 21.4795 158.735 21.0768 158.047 20.5858L159.815 17.2566C160.502 17.7083 161.337 18.0717 162.319 18.3467C163.321 18.6216 164.323 18.7591 165.324 18.7591C166.365 18.7591 167.141 18.6315 167.652 18.3761C168.162 18.1011 168.418 17.7181 168.418 17.2271C168.418 16.8343 168.192 16.5495 167.74 16.3727C167.288 16.1959 166.562 16.0093 165.56 15.8129C164.421 15.5968 163.478 15.3611 162.732 15.1058C162.005 14.8505 161.367 14.438 160.817 13.8684C160.286 13.2791 160.021 12.4837 160.021 11.4819C160.021 9.73383 160.748 8.36874 162.201 7.38667C163.674 6.40459 165.599 5.91355 167.976 5.91355C169.076 5.91355 170.146 6.0314 171.187 6.2671C172.228 6.50279 173.112 6.82688 173.839 7.23935L172.189 10.5981C170.893 9.79276 169.331 9.39011 167.504 9.39011C166.503 9.39011 165.737 9.53742 165.206 9.83204C164.696 10.1267 164.44 10.4999 164.44 10.9516C164.44 11.3641 164.666 11.6685 165.118 11.8649C165.57 12.0417 166.326 12.2381 167.387 12.4542C168.506 12.6703 169.42 12.9059 170.127 13.1613C170.853 13.397 171.482 13.7996 172.012 14.3692C172.543 14.9389 172.808 15.7147 172.808 16.6968C172.808 18.4645 172.061 19.8296 170.569 20.792C169.095 21.7545 167.18 22.2357 164.823 22.2357Z" fill="#FFFEF9"/>
<path d="M25.9412 39.0586H21.6323L20.8103 41.0473H18.6095L22.746 31.7667H24.8673L29.017 41.0473H26.7632L25.9412 39.0586ZM25.265 37.4279L23.7934 33.8747L22.3217 37.4279H25.265ZM30.6428 31.7667H34.8589C35.8665 31.7667 36.7548 31.9611 37.5238 32.35C38.3016 32.7301 38.9026 33.2692 39.3269 33.9675C39.7599 34.6658 39.9765 35.4789 39.9765 36.407C39.9765 37.335 39.7599 38.1482 39.3269 38.8465C38.9026 39.5447 38.3016 40.0883 37.5238 40.4772C36.7548 40.8573 35.8665 41.0473 34.8589 41.0473H30.6428V31.7667ZM34.7528 39.284C35.6809 39.284 36.4189 39.0277 36.9669 38.515C37.5238 37.9935 37.8022 37.2909 37.8022 36.407C37.8022 35.5231 37.5238 34.8249 36.9669 34.3122C36.4189 33.7907 35.6809 33.53 34.7528 33.53H32.7906V39.284H34.7528ZM50.8711 31.7667L46.8539 41.0473H44.7326L40.7287 31.7667H43.0488L45.8728 38.3957L48.7366 31.7667H50.8711ZM59.4947 39.3238V41.0473H52.3089V31.7667H59.3224V33.4902H54.4434V35.5054H58.7523V37.1759H54.4434V39.3238H59.4947ZM70.3783 31.7667V41.0473H68.6149L63.9879 35.4126V41.0473H61.8666V31.7667H63.6432L68.257 37.4013V31.7667H70.3783ZM75.1594 33.5167H72.1896V31.7667H80.277V33.5167H77.3072V41.0473H75.1594V33.5167ZM86.0634 41.2064C84.7376 41.2064 83.7035 40.8396 82.961 40.106C82.2274 39.3724 81.8606 38.325 81.8606 36.9638V31.7667H84.0084V36.8843C84.0084 38.5459 84.6978 39.3768 86.0766 39.3768C86.7484 39.3768 87.261 39.1779 87.6146 38.7802C87.9681 38.3736 88.1449 37.7416 88.1449 36.8843V31.7667H90.2662V36.9638C90.2662 38.325 89.895 39.3724 89.1525 40.106C88.4189 40.8396 87.3892 41.2064 86.0634 41.2064ZM98.9646 41.0473L97.1748 38.462H97.0687H95.1993V41.0473H93.0515V31.7667H97.0687C97.8907 31.7667 98.6022 31.9037 99.2033 32.1777C99.8131 32.4517 100.282 32.8406 100.609 33.3444C100.936 33.8482 101.099 34.4448 101.099 35.1342C101.099 35.8236 100.931 36.4202 100.595 36.924C100.268 37.419 99.7999 37.7991 99.19 38.0642L101.272 41.0473H98.9646ZM98.9249 35.1342C98.9249 34.6127 98.7569 34.215 98.421 33.941C98.0852 33.6581 97.5946 33.5167 96.9494 33.5167H95.1993V36.7517H96.9494C97.5946 36.7517 98.0852 36.6103 98.421 36.3274C98.7569 36.0446 98.9249 35.6469 98.9249 35.1342ZM110.65 39.3238V41.0473H103.464V31.7667H110.477V33.4902H105.598V35.5054H109.907V37.1759H105.598V39.3238H110.65ZM123.71 36.2611H125.672V40.0264C125.169 40.4065 124.585 40.6982 123.922 40.9015C123.259 41.1048 122.592 41.2064 121.92 41.2064C120.957 41.2064 120.091 41.0031 119.322 40.5965C118.553 40.1811 117.947 39.611 117.505 38.8862C117.072 38.1526 116.856 37.3262 116.856 36.407C116.856 35.4878 117.072 34.6658 117.505 33.941C117.947 33.2074 118.557 32.6373 119.335 32.2307C120.113 31.8153 120.988 31.6076 121.96 31.6076C122.773 31.6076 123.511 31.7446 124.174 32.0186C124.837 32.2926 125.394 32.6903 125.845 33.2118L124.466 34.4846C123.803 33.7863 123.003 33.4372 122.066 33.4372C121.474 33.4372 120.948 33.5609 120.488 33.8084C120.029 34.0559 119.671 34.405 119.415 34.8558C119.158 35.3066 119.03 35.8236 119.03 36.407C119.03 36.9815 119.158 37.4941 119.415 37.9449C119.671 38.3957 120.024 38.7492 120.475 39.0056C120.935 39.253 121.456 39.3768 122.04 39.3768C122.658 39.3768 123.215 39.2442 123.71 38.979V36.2611ZM135.516 39.3238V41.0473H128.33V31.7667H135.344V33.4902H130.465V35.5054H134.774V37.1759H130.465V39.3238H135.516ZM144 39.0586H139.691L138.869 41.0473H136.668L140.805 31.7667H142.926L147.076 41.0473H144.822L144 39.0586ZM143.324 37.4279L141.852 33.8747L140.381 37.4279H143.324ZM154.615 41.0473L152.825 38.462H152.719H150.85V41.0473H148.702V31.7667H152.719C153.541 31.7667 154.252 31.9037 154.853 32.1777C155.463 32.4517 155.932 32.8406 156.259 33.3444C156.586 33.8482 156.749 34.4448 156.749 35.1342C156.749 35.8236 156.581 36.4202 156.246 36.924C155.919 37.419 155.45 37.7991 154.84 38.0642L156.922 41.0473H154.615ZM154.575 35.1342C154.575 34.6127 154.407 34.215 154.071 33.941C153.735 33.6581 153.245 33.5167 152.6 33.5167H150.85V36.7517H152.6C153.245 36.7517 153.735 36.6103 154.071 36.3274C154.407 36.0446 154.575 35.6469 154.575 35.1342Z" fill="#FFFEF9"/>
</svg>
